<svg
  width="20"
  height="20"
  viewBox="0 0 20 20"
  fill="currentColor"
  xmlns="http://www.w3.org/2000/svg"
>
  <path
    d="M13.8858 2.71322C14.8344 1.92447 16.2474 1.9732 17.1388 2.86459L17.3057 3.04916C18.0316 3.94013 18.0265 5.22711 17.294 6.11263L17.1261 6.29623L14.711 8.67513L14.8653 8.82943L15.0431 9.02865C15.8122 9.9856 15.6958 11.3368 14.9454 12.2337L14.7755 12.4183C13.6883 13.4902 12.8391 14.6622 12.1798 16.0052L11.9083 16.5912C11.3764 17.8145 9.89971 18.5876 8.58797 17.9271L8.462 17.8587C7.40522 17.2458 6.64667 16.801 5.98153 16.2884C5.38845 15.8314 4.88059 15.3299 4.28719 14.6253L4.02743 14.3109C3.8525 14.0953 3.82988 13.7933 3.97078 13.554L4.35262 12.9046L3.73348 13.1204C3.48317 13.2076 3.20874 13.1373 3.03133 12.9495L2.962 12.8626C2.82204 12.6535 2.68349 12.4395 2.54696 12.2201L2.14168 11.5453C1.3618 10.2032 2.14737 8.64808 3.41024 8.09994L3.99715 7.82943C5.34174 7.17073 6.51501 6.32179 7.58797 5.23568L7.77254 5.06576C8.73426 4.26289 10.2181 4.1871 11.1788 5.14681L11.3321 5.30013L13.7032 2.88217L13.8858 2.71322ZM6.89754 7.60385C6.08373 8.21683 5.21277 8.73808 4.26571 9.17513L3.94051 9.32064C3.24144 9.62398 2.99802 10.3713 3.29207 10.8773L3.67684 11.5169C3.71362 11.576 3.7522 11.6336 3.78914 11.6917L5.62703 11.0521L5.72664 11.0257C5.96159 10.9829 6.20564 11.0704 6.36043 11.2591C6.53695 11.4747 6.56039 11.7777 6.41903 12.0179L5.35457 13.8226C5.88269 14.4443 6.30963 14.8614 6.79403 15.2347C7.37737 15.6842 8.05552 16.0858 9.12899 16.7083L9.22664 16.7572C9.72868 16.9707 10.4043 16.7146 10.6886 16.0609L10.835 15.7357C11.2724 14.7898 11.792 13.9186 12.4054 13.1058L6.89754 7.60385ZM16.1983 3.80502C15.7975 3.40419 15.1621 3.38226 14.7354 3.73666L14.6524 3.81283L11.8116 6.71029C11.6875 6.83692 11.5182 6.90945 11.3409 6.91049C11.1634 6.91141 10.9928 6.84059 10.8673 6.71517L10.2384 6.08724C9.8327 5.68229 9.12999 5.66436 8.63094 6.08138L8.53426 6.17123C8.33552 6.37241 8.13162 6.56445 7.92586 6.75131L13.2579 12.0785C13.4452 11.8726 13.6402 11.6709 13.8419 11.472L13.9307 11.3744C14.3203 10.9092 14.331 10.2674 14.0011 9.85482L13.9249 9.77084L13.296 9.14291C13.1706 9.01761 13.101 8.84656 13.1016 8.66928C13.1024 8.49215 13.1737 8.32289 13.2999 8.19857L16.1925 5.34896L16.2677 5.26595C16.5972 4.86764 16.6 4.28883 16.2735 3.88803L16.1983 3.80502Z"
  />
</svg>
