<svg
  width="24"
  height="24"
  viewBox="0 0 24 24"
  fill="none"
  xmlns="http://www.w3.org/2000/svg"
>
  <path
    fill-rule="evenodd"
    clip-rule="evenodd"
    d="M5.91444 7.59106C4.3419 9.04124 3.28865 10.7415 2.77052 11.6971C2.66585 11.8902 2.66585 12.1098 2.77052 12.3029C3.28865 13.2585 4.3419 14.9588 5.91444 16.4089C7.48195 17.8545 9.50572 19 12 19C14.4943 19 16.518 17.8545 18.0855 16.4089C19.6581 14.9588 20.7113 13.2585 21.2295 12.3029C21.3341 12.1098 21.3341 11.8902 21.2295 11.6971C20.7113 10.7415 19.6581 9.04124 18.0855 7.59105C16.518 6.1455 14.4943 5 12 5C9.50572 5 7.48195 6.1455 5.91444 7.59106ZM4.55857 6.1208C6.36059 4.45899 8.84581 3 12 3C15.1542 3 17.6394 4.45899 19.4414 6.1208C21.2384 7.77798 22.4152 9.68799 22.9877 10.7438C23.4147 11.5315 23.4147 12.4685 22.9877 13.2562C22.4152 14.312 21.2384 16.222 19.4414 17.8792C17.6394 19.541 15.1542 21 12 21C8.84581 21 6.36059 19.541 4.55857 17.8792C2.76159 16.222 1.58478 14.312 1.01232 13.2562C0.58525 12.4685 0.585249 11.5315 1.01232 10.7438C1.58478 9.688 2.76159 7.77798 4.55857 6.1208ZM12 9.5C10.6193 9.5 9.49999 10.6193 9.49999 12C9.49999 13.3807 10.6193 14.5 12 14.5C13.3807 14.5 14.5 13.3807 14.5 12C14.5 10.6193 13.3807 9.5 12 9.5ZM7.49999 12C7.49999 9.51472 9.51471 7.5 12 7.5C14.4853 7.5 16.5 9.51472 16.5 12C16.5 14.4853 14.4853 16.5 12 16.5C9.51471 16.5 7.49999 14.4853 7.49999 12Z"
    fill="currentColor"
  />
</svg>
