<svg
  width="24"
  height="24"
  viewBox="0 0 24 24"
  fill="none"
  xmlns="http://www.w3.org/2000/svg"
>
  <path
    fill-rule="evenodd"
    clip-rule="evenodd"
    d="M14.5 4C11.4624 4 8.99999 6.46243 8.99999 9.5C8.99999 10.2519 9.1503 10.9661 9.42157 11.6162C9.57769 11.9903 9.49247 12.4217 9.2058 12.7084L4.4571 17.4571C3.88112 18.0331 3.88112 18.9669 4.4571 19.5429C5.03307 20.1189 5.96691 20.1189 6.54288 19.5429L11.2916 14.7942C11.5783 14.5075 12.0096 14.4223 12.3838 14.5784C13.0339 14.8497 13.7481 15 14.5 15C17.5376 15 20 12.5376 20 9.5C20 9.47156 19.9998 9.44318 19.9993 9.41486L18.7071 10.7071C17.212 12.2022 14.788 12.2022 13.2929 10.7071C11.7978 9.21201 11.7978 6.78798 13.2929 5.29289L14.5851 4.00064C14.5568 4.00022 14.5284 4 14.5 4ZM6.99999 9.5C6.99999 5.35786 10.3579 2 14.5 2C15.3632 2 16.1943 2.14622 16.9687 2.41606C17.2937 2.52931 17.5376 2.80173 17.6144 3.13722C17.6912 3.47271 17.5901 3.82412 17.3467 4.06748L14.7071 6.70711C13.9931 7.42115 13.9931 8.57885 14.7071 9.29289C15.4211 10.0069 16.5788 10.0069 17.2929 9.29289L19.9325 6.65327C20.1759 6.4099 20.5273 6.30879 20.8628 6.38559C21.1983 6.46239 21.4707 6.70632 21.5839 7.03132C21.8538 7.8057 22 8.63684 22 9.5C22 13.6421 18.6421 17 14.5 17C13.7195 17 12.9654 16.8805 12.256 16.6582L7.9571 20.9571C6.60007 22.3141 4.39991 22.3141 3.04288 20.9571C1.68586 19.6001 1.68586 17.3999 3.04288 16.0429L7.34175 11.744C7.11954 11.0346 6.99999 10.2805 6.99999 9.5Z"
    fill="currentColor"
  />
</svg>
