<svg
  width="24"
  height="24"
  viewBox="0 0 24 24"
  fill="none"
  xmlns="http://www.w3.org/2000/svg"
>
  <path
    fill-rule="evenodd"
    clip-rule="evenodd"
    d="M12.9641 3.21478C14.0613 1.73426 16.2208 1.58242 17.5144 2.89485L21.1357 6.56907C22.43 7.88224 22.2461 10.041 20.7483 11.1162L18.5962 12.6612C18.1472 12.9836 17.5219 12.8809 17.1996 12.4318C16.8773 11.9827 16.98 11.3574 17.429 11.035L19.5811 9.49004C20.0804 9.13162 20.1417 8.41204 19.7103 7.97432L16.0889 4.3001C15.6577 3.86263 14.9379 3.91324 14.5722 4.40675L12.8119 6.78196C12.4828 7.22606 11.856 7.31924 11.4119 6.99009C10.9679 6.66093 10.8747 6.03409 11.2038 5.59L12.9641 3.21478ZM3.29391 3.2763C3.68474 2.88543 4.3184 2.88543 4.70923 3.2763L20.7218 19.2905C21.1126 19.6814 21.1126 20.3151 20.7218 20.706C20.331 21.0968 19.6973 21.0968 19.3065 20.706L16.011 17.4101V17.5545C16.011 18.847 15.1841 19.9944 13.9581 20.4031L13.4979 20.5565C12.419 20.9162 11.2296 20.6354 10.4255 19.8312L8.00472 17.4101L3.70845 21.7068C3.31762 22.0977 2.68395 22.0977 2.29312 21.7068C1.90229 21.316 1.90229 20.6822 2.29312 20.2914L6.58939 15.9947L4.16863 13.5737C3.3645 12.7695 3.08371 11.5799 3.44333 10.5009L3.59672 10.0407C4.00539 8.8146 5.1527 7.98758 6.44501 7.98758H6.58939L3.29391 4.69177C2.90308 4.30089 2.90308 3.66717 3.29391 3.2763ZM8.59096 9.98935H6.44501C6.01424 9.98935 5.6318 10.265 5.49558 10.6737L5.34219 11.134C5.22231 11.4936 5.31591 11.8901 5.58395 12.1582L8.71187 15.2864L8.71289 15.2875L11.8408 18.4157C12.1088 18.6838 12.5053 18.7774 12.8649 18.6575L13.3251 18.5041C13.7338 18.3678 14.0094 17.9854 14.0094 17.5545V15.4084L8.59096 9.98935Z"
    fill="currentColor"
  />
</svg>
