<svg
  width="20"
  height="20"
  viewBox="0 0 20 20"
  fill="none"
  xmlns="http://www.w3.org/2000/svg"
>
  <path
    d="M8.21498 2.08301H11.7863C12.6895 2.083 13.4179 2.08299 14.0078 2.13119C14.6152 2.18081 15.1487 2.28566 15.6423 2.53715C16.4263 2.93662 17.0637 3.57404 17.4632 4.35805C17.7147 4.85162 17.8195 5.38511 17.8691 5.99249C17.9173 6.58238 17.9173 7.31084 17.9173 8.21398V11.7854C17.9173 12.6885 17.9173 13.417 17.8691 14.0069C17.8195 14.6142 17.7147 15.1477 17.4632 15.6413C17.0637 16.4253 16.4263 17.0627 15.6423 17.4622C15.1487 17.7137 14.6152 17.8185 14.0078 17.8682C13.4179 17.9164 12.6895 17.9163 11.7863 17.9163H8.21496C7.31181 17.9163 6.58336 17.9164 5.99346 17.8682C5.38609 17.8185 4.8526 17.7137 4.35902 17.4622C3.57502 17.0627 2.9376 16.4253 2.53812 15.6413C2.28663 15.1477 2.18179 14.6142 2.13217 14.0069C2.08397 13.417 2.08398 12.6885 2.08398 11.7853V8.214C2.08398 7.31085 2.08397 6.58239 2.13217 5.99249C2.18179 5.38511 2.28663 4.85162 2.53812 4.35805C2.9376 3.57404 3.57502 2.93662 4.35902 2.53715C4.8526 2.28566 5.38609 2.18081 5.99346 2.13119C6.58336 2.08299 7.31182 2.083 8.21498 2.08301ZM6.12918 3.79232C5.62488 3.83352 5.33514 3.91034 5.11568 4.02216C4.64527 4.26184 4.26282 4.64429 4.02314 5.1147C3.91131 5.33416 3.8345 5.6239 3.7933 6.12821C3.7513 6.64224 3.75065 7.3025 3.75065 8.24967V11.7497C3.75065 12.6968 3.7513 13.3571 3.7933 13.8711C3.8345 14.3754 3.91131 14.6652 4.02314 14.8847C4.26282 15.3551 4.64527 15.7375 5.11568 15.9772C5.33514 16.089 5.62488 16.1658 6.12918 16.207C6.64322 16.249 7.30348 16.2497 8.25065 16.2497H11.7507C12.6978 16.2497 13.3581 16.249 13.8721 16.207C14.3764 16.1658 14.6662 16.089 14.8856 15.9772C15.356 15.7375 15.7385 15.3551 15.9782 14.8847C16.09 14.6652 16.1668 14.3754 16.208 13.8711C16.25 13.3571 16.2507 12.6968 16.2507 11.7497V8.24967C16.2507 7.3025 16.25 6.64224 16.208 6.12821C16.1668 5.6239 16.09 5.33416 15.9782 5.1147C15.7385 4.64429 15.356 4.26184 14.8856 4.02216C14.6662 3.91034 14.3764 3.83352 13.8721 3.79232C13.3581 3.75032 12.6978 3.74967 11.7507 3.74967H8.25065C7.30348 3.74967 6.64322 3.75032 6.12918 3.79232ZM10.0007 5.83301C10.4609 5.83301 10.834 6.2061 10.834 6.66634V9.16634H13.334C13.7942 9.16634 14.1673 9.53944 14.1673 9.99968C14.1673 10.4599 13.7942 10.833 13.334 10.833H10.834V13.333C10.834 13.7932 10.4609 14.1663 10.0007 14.1663C9.54041 14.1663 9.16732 13.7932 9.16732 13.333V10.833H6.66732C6.20708 10.833 5.83398 10.4599 5.83398 9.99968C5.83398 9.53944 6.20708 9.16634 6.66732 9.16634H9.16732V6.66634C9.16732 6.2061 9.54041 5.83301 10.0007 5.83301Z"
    fill="currentColor"
  />
</svg>
