<svg
  width="24"
  height="24"
  viewBox="0 0 24 24"
  fill="none"
  xmlns="http://www.w3.org/2000/svg"
>
  <path
    fill-rule="evenodd"
    clip-rule="evenodd"
    d="M2 7C2 5.34315 3.34315 4 5 4H6C6.55228 4 7 4.44772 7 5C7 5.55228 6.55228 6 6 6H5C4.44772 6 4 6.44772 4 7V17C4 17.5523 4.44772 18 5 18H6C6.55228 18 7 18.4477 7 19C7 19.5523 6.55228 20 6 20H5C3.34315 20 2 18.6569 2 17V7ZM17 5C17 4.44772 17.4477 4 18 4H19C20.6569 4 22 5.34315 22 7V17C22 18.6569 20.6569 20 19 20H18C17.4477 20 17 19.5523 17 19C17 18.4477 17.4477 18 18 18H19C19.5523 18 20 17.5523 20 17V7C20 6.44772 19.5523 6 19 6H18C17.4477 6 17 5.55228 17 5ZM12 9C12.5523 9 13 9.44772 13 10V14C13 14.5523 12.5523 15 12 15C11.4477 15 11 14.5523 11 14V10C11 9.44772 11.4477 9 12 9ZM15.5 10.5C16.0523 10.5 16.5 10.9477 16.5 11.5V14C16.5 14.5523 16.0523 15 15.5 15C14.9477 15 14.5 14.5523 14.5 14V11.5C14.5 10.9477 14.9477 10.5 15.5 10.5ZM8.5 11.5C9.05228 11.5 9.5 11.9477 9.5 12.5V14C9.5 14.5523 9.05228 15 8.5 15C7.94772 15 7.5 14.5523 7.5 14V12.5C7.5 11.9477 7.94772 11.5 8.5 11.5Z"
    fill="currentColor"
  />
</svg>
