<svg
  width="24"
  height="24"
  viewBox="0 0 24 24"
  fill="none"
  xmlns="http://www.w3.org/2000/svg"
>
  <path
    d="M6.16146 3.5H17.8385C18.3657 3.49998 18.8205 3.49997 19.195 3.53057C19.5904 3.56287 19.9836 3.63419 20.362 3.82698C20.9265 4.1146 21.3854 4.57354 21.673 5.13803C21.8658 5.51641 21.9371 5.90963 21.9694 6.30497C22 6.67954 22 7.1343 22 7.66144V15.5C22.5523 15.5 22.9999 15.9477 22.9999 16.5V17.5C22.9999 19.1569 21.6568 20.5 19.9999 20.5H3.99622C2.33936 20.5 0.996216 19.1569 0.996216 17.5V16.5C0.996216 15.9477 1.44393 15.5 1.99622 15.5H2L2 7.66146C1.99998 7.13431 1.99997 6.67955 2.03057 6.30497C2.06287 5.90963 2.13419 5.51641 2.32698 5.13803C2.6146 4.57354 3.07354 4.1146 3.63803 3.82698C4.01641 3.63419 4.40963 3.56287 4.80497 3.53057C5.17954 3.49997 5.63431 3.49998 6.16146 3.5ZM3.0014 17.5L3 17.5L2.9986 17.5H2.99622C2.99622 18.0523 3.44393 18.5 3.99622 18.5H19.9999C20.5522 18.5 20.9999 18.0523 20.9999 17.5H20.9986H15.236L14.4472 17.8944C14.3083 17.9639 14.1552 18 13.9999 18H9.99995C9.8447 18 9.69159 17.9639 9.55273 17.8944L8.76388 17.5H3.0014ZM20 15.5V7.7C20 7.12345 19.9992 6.75118 19.9761 6.46784C19.9539 6.19617 19.9162 6.09546 19.891 6.04601C19.7951 5.85785 19.6422 5.70487 19.454 5.609C19.4045 5.5838 19.3038 5.54612 19.0322 5.52393C18.7488 5.50078 18.3766 5.5 17.8 5.5H6.2C5.62345 5.5 5.25117 5.50078 4.96784 5.52393C4.69617 5.54612 4.59545 5.5838 4.54601 5.609C4.35785 5.70487 4.20487 5.85785 4.10899 6.04601C4.0838 6.09546 4.04612 6.19617 4.02393 6.46784C4.00078 6.75117 4 7.12345 4 7.7V15.5H8.99995C9.15519 15.5 9.3083 15.5361 9.44716 15.6056L10.236 16H13.7639L14.5527 15.6056C14.6916 15.5361 14.8447 15.5 14.9999 15.5H20Z"
    fill="currentColor"
  />
</svg>
